<?xml version="1.0" standalone="no"?>
<svg xmlns="http://www.w3.org/2000/svg" viewBox="0 0 139.032 36" width="139.032" height="36"><g fill="#ff6017" color="#ff6017" transform="translate(111.032, 3.9999999999999982) scale(0.5490197)"><svg width="51.0" height="51.0" x="0.0" y="0.0" viewBox="0 0 51 51"><path fill="currentColor" fill-rule="evenodd" d="M45.003 46.574c-.674.717-1.56 1.602-2.065 1.813-.295.126-.632.21-.927.042-.843-.464-.042-1.265-.042-1.265s.505-.632 1.053-1.517c1.35-1.98 1.35-4.257-1.559-1.813-4.13 3.541-8.978 5.648-10.958 6.365-.465.169-1.729.548-1.982-.042-.253-.506.885-1.011 1.35-1.18 1.39-.506 4.593-1.855 7.754-4.005.38-.252.085-.421-.295-.168-3.456 2.318-7.418 3.878-9.104 4.468-.421.169-1.517.506-1.854-.042-.338-.548.759-1.012 1.138-1.138 1.517-.548 5.352-2.066 8.683-4.258.252-.21.041-.463-.422-.21-2.614 1.813-5.395 2.95-6.828 3.456-.506.21-1.56.464-1.855-.084-.295-.506.717-.97 1.222-1.138 1.18-.421 3.414-1.391 5.648-2.782.169-.085.085-.548-.379-.253-1.56 1.011-2.908 1.602-2.993 1.644 0 0-1.011.421-1.517.084-.463-.337.295-.759.927-1.095.843-.38 9.569-4.974 8.894-11.634-.38-3.625-1.854-5.269-4.805-8.556l-8.81-8.81c-4.93 5.059-8.808 8.936-8.808 8.936-2.95 3.288-4.426 4.932-4.805 8.557-.675 6.66 8.05 11.253 8.893 11.633.632.295 1.433.758.927 1.095-.506.338-1.517-.083-1.517-.083-.127-.043-1.475-.633-2.993-1.645-.505-.295-.548.127-.379.253 2.234 1.392 4.468 2.318 5.648 2.782.506.211 1.517.633 1.222 1.138-.295.548-1.306.295-1.854.084-1.391-.505-4.173-1.643-6.828-3.455-.464-.295-.675-.043-.422.21 3.288 2.192 7.165 3.71 8.683 4.257.38.126 1.433.59 1.138 1.138-.337.548-1.433.211-1.855.042-1.644-.59-5.648-2.15-9.104-4.467-.38-.254-.674-.127-.295.168 3.161 2.15 6.322 3.499 7.755 4.004.464.169 1.602.675 1.35 1.18-.296.59-1.518.211-1.982.042-1.939-.716-6.786-2.865-10.958-6.364-2.909-2.487-2.909-.21-1.56 1.813.59.884 1.054 1.475 1.054 1.517 0 0 .8.8-.042 1.264-.295.17-.633.084-.928-.042-.505-.21-1.348-1.096-2.065-1.812-2.655-2.993-8.683-11.043-3.54-21.454 2.15-4.341 6.828-8.851 6.828-8.851l9.146-9.105L25.278 0l7.291 7.291 9.147 9.105s4.678 4.51 6.828 8.85c5.142 10.412-.885 18.462-3.54 21.328m-19.726-1.728S9.26 32.918 16.426 26.975c2.36-1.939 6.576-1.011 8.852.927 2.276-1.938 6.448-2.866 8.85-.927 7.166 5.943-8.85 17.871-8.85 17.871"></path></svg></g><path fill="#000000" fill-rule="nonzero" d="M0 20.32L0 0.30L3.04 0.30L3.04 20.32L0 20.32ZM6.27 20.32L6.27 4.18L8.55 4.18L8.82 5.91L8.82 5.92Q9.18 5.37 9.58 5.00Q9.98 4.63 10.42 4.41Q10.85 4.18 11.30 4.09Q11.75 4.00 12.20 4.00L12.20 4.00Q13.62 4.00 14.38 4.99Q15.15 5.98 15.15 7.96L15.15 7.96L15.15 20.32L12.19 20.32L12.19 8.06Q12.19 7.00 11.86 6.58Q11.53 6.16 10.90 6.16L10.90 6.16Q10.45 6.16 10.01 6.46Q9.57 6.75 9.23 7.27L9.23 7.27L9.23 20.32L6.27 20.32ZM18.22 20.32L18.22 4.18L20.52 4.18L20.78 5.91L20.78 5.92Q21.13 5.37 21.53 5.00Q21.93 4.63 22.35 4.41Q22.78 4.18 23.23 4.09Q23.68 4.00 24.13 4.00L24.13 4.00Q25.08 4.00 25.73 4.45Q26.39 4.91 26.73 5.82L26.73 5.82Q27.08 5.30 27.47 4.95Q27.87 4.59 28.29 4.38Q28.71 4.17 29.14 4.08Q29.58 4.00 30.02 4.00L30.02 4.00Q31.43 4.00 32.20 4.99Q32.96 5.98 32.96 7.96L32.96 7.96L32.96 20.32L30 20.32L30 8.06Q30 7.54 29.92 7.17Q29.84 6.81 29.67 6.59Q29.51 6.36 29.25 6.26Q28.99 6.16 28.63 6.16L28.63 6.16Q28.22 6.16 27.81 6.46Q27.40 6.76 27.06 7.29L27.06 7.29Q27.07 7.39 27.07 7.50Q27.07 7.61 27.07 7.71L27.07 7.71L27.07 20.32L24.11 20.32L24.11 8.06Q24.11 7.54 24.02 7.17Q23.94 6.81 23.78 6.59Q23.61 6.36 23.36 6.26Q23.10 6.16 22.73 6.16L22.73 6.16Q22.34 6.16 21.93 6.46Q21.52 6.75 21.19 7.27L21.19 7.27L21.19 20.32L18.22 20.32ZM40.10 20.50L40.10 20.50Q39.59 20.50 39.05 20.41Q38.52 20.33 38.02 20.07Q37.52 19.82 37.08 19.34Q36.64 18.86 36.32 18.07Q35.99 17.29 35.80 16.14Q35.61 14.99 35.61 13.39L35.61 13.39L35.61 10.86Q35.61 9.29 35.81 8.17Q36 7.05 36.33 6.29Q36.67 5.53 37.11 5.08Q37.56 4.63 38.06 4.39Q38.55 4.15 39.08 4.07Q39.61 4.00 40.11 4.00L40.11 4.00Q40.59 4.00 41.11 4.07Q41.63 4.14 42.12 4.37Q42.61 4.59 43.05 5.04Q43.49 5.50 43.82 6.26Q44.16 7.02 44.35 8.15Q44.54 9.28 44.54 10.86L44.54 10.86L44.54 13.39Q44.54 14.96 44.34 16.10Q44.14 17.24 43.80 18.02Q43.46 18.81 43.02 19.29Q42.57 19.78 42.08 20.05Q41.59 20.32 41.08 20.41Q40.57 20.50 40.10 20.50ZM40.13 18.21L40.13 18.21Q40.52 18.21 40.80 18.01Q41.07 17.80 41.24 17.33Q41.41 16.86 41.49 16.10Q41.57 15.33 41.57 14.19L41.57 14.19L41.57 10.22Q41.57 9.08 41.49 8.31Q41.41 7.54 41.24 7.06Q41.07 6.59 40.80 6.38Q40.52 6.16 40.13 6.16L40.13 6.16Q39.70 6.16 39.42 6.38Q39.13 6.59 38.94 7.06Q38.75 7.54 38.67 8.31Q38.59 9.08 38.59 10.22L38.59 10.22L38.59 14.19Q38.59 15.33 38.67 16.10Q38.75 16.86 38.94 17.33Q39.13 17.80 39.42 18.01Q39.70 18.21 40.13 18.21ZM47.17 20.32L47.17 4.18L49.46 4.18L49.72 5.91L49.72 5.92Q50.07 5.37 50.47 5.00Q50.87 4.63 51.30 4.41Q51.73 4.18 52.18 4.09Q52.63 4.00 53.07 4.00L53.07 4.00Q54.02 4.00 54.68 4.45Q55.34 4.91 55.68 5.82L55.68 5.82Q56.03 5.30 56.42 4.95Q56.81 4.59 57.23 4.38Q57.66 4.17 58.09 4.08Q58.52 4.00 58.97 4.00L58.97 4.00Q60.38 4.00 61.14 4.99Q61.91 5.98 61.91 7.96L61.91 7.96L61.91 20.32L58.95 20.32L58.95 8.06Q58.95 7.54 58.86 7.17Q58.78 6.81 58.62 6.59Q58.45 6.36 58.20 6.26Q57.94 6.16 57.57 6.16L57.57 6.16Q57.16 6.16 56.75 6.46Q56.34 6.76 56.00 7.29L56.00 7.29Q56.02 7.39 56.02 7.50Q56.02 7.61 56.02 7.71L56.02 7.71L56.02 20.32L53.05 20.32L53.05 8.06Q53.05 7.54 52.97 7.17Q52.89 6.81 52.72 6.59Q52.56 6.36 52.30 6.26Q52.04 6.16 51.68 6.16L51.68 6.16Q51.28 6.16 50.87 6.46Q50.46 6.75 50.13 7.27L50.13 7.27L50.13 20.32L47.17 20.32ZM68.87 20.50L68.87 20.50Q67.83 20.50 67.03 20.11Q66.22 19.72 65.67 18.90Q65.12 18.08 64.84 16.80Q64.56 15.52 64.56 13.71L64.56 13.71L64.56 10.66Q64.56 9.13 64.79 8.03Q65.02 6.94 65.38 6.19Q65.75 5.45 66.24 5.02Q66.73 4.58 67.24 4.35Q67.76 4.13 68.27 4.06Q68.78 4.00 69.21 4.00L69.21 4.00Q70.01 4.00 70.75 4.24Q71.48 4.48 72.05 5.06Q72.61 5.64 72.94 6.61Q73.28 7.58 73.28 9.04L73.28 9.04Q73.28 9.53 73.25 10.03Q73.22 10.54 73.17 11.02Q73.13 11.51 73.05 11.96Q72.97 12.42 72.89 12.81L72.89 12.81L67.54 12.81L67.54 14.45Q67.54 15.50 67.62 16.22Q67.70 16.95 67.89 17.38Q68.09 17.82 68.42 18.02Q68.75 18.21 69.26 18.21L69.26 18.21Q69.53 18.21 69.79 18.10Q70.04 17.99 70.24 17.73Q70.43 17.47 70.55 17.04Q70.66 16.62 70.66 15.98L70.66 15.98L70.66 15.48L73.14 15.48L73.14 16.10Q73.14 18.40 72.04 19.45Q70.95 20.50 68.87 20.50ZM67.54 10.82L70.51 10.82Q70.52 10.69 70.54 10.47Q70.55 10.25 70.55 10.02Q70.56 9.79 70.56 9.56Q70.56 9.33 70.56 9.16L70.56 9.16Q70.56 7.57 70.18 6.87Q69.81 6.16 69.07 6.16L69.07 6.16Q68.68 6.16 68.39 6.35Q68.10 6.53 67.91 6.96Q67.72 7.38 67.63 8.09Q67.54 8.79 67.54 9.83L67.54 9.83L67.54 10.82ZM75.79 20.32L75.79 4.18L78.07 4.18L78.34 5.91L78.34 5.92Q78.69 5.37 79.10 5.00Q79.50 4.63 79.93 4.41Q80.37 4.18 80.82 4.09Q81.27 4.00 81.71 4.00L81.71 4.00Q83.13 4.00 83.90 4.99Q84.67 5.98 84.67 7.96L84.67 7.96L84.67 20.32L81.70 20.32L81.70 8.06Q81.70 7.00 81.38 6.58Q81.05 6.16 80.41 6.16L80.41 6.16Q79.97 6.16 79.53 6.46Q79.09 6.75 78.75 7.27L78.75 7.27L78.75 20.32L75.79 20.32ZM88.08 16.30L88.08 6.29L86.82 6.29L86.82 4.18L88.34 4.18L88.93 0L91.04 0L91.04 4.18L93.62 4.18L93.62 6.29L91.04 6.29L91.04 16.56Q91.04 17.09 91.14 17.41Q91.24 17.73 91.42 17.91Q91.59 18.09 91.83 18.15Q92.06 18.21 92.32 18.21L92.32 18.21Q92.75 18.21 93.09 18.11Q93.42 18 93.73 17.81L93.73 17.81L93.73 19.45Q93.47 19.77 93.17 19.97Q92.87 20.17 92.55 20.29Q92.24 20.41 91.91 20.46Q91.58 20.51 91.27 20.51L91.27 20.51Q90.64 20.51 90.07 20.34Q89.50 20.18 89.05 19.72Q88.61 19.25 88.34 18.43Q88.08 17.61 88.08 16.30L88.08 16.30ZM95.02 16.95L95.02 16.95Q95.02 16.42 95.12 15.93Q95.21 15.43 95.31 15.14L95.31 15.14L97.39 15.14Q97.39 16.02 97.48 16.61Q97.57 17.20 97.77 17.55Q97.97 17.91 98.30 18.06Q98.64 18.21 99.12 18.21L99.12 18.21Q99.79 18.21 100.09 17.84Q100.39 17.46 100.39 16.97L100.39 16.97Q100.39 16.71 100.32 16.48Q100.25 16.24 100.13 16.00Q100.00 15.76 99.81 15.52Q99.62 15.27 99.39 14.98L99.39 14.98L97.22 12.42Q96.80 11.89 96.40 11.35Q96.01 10.80 95.71 10.22Q95.41 9.64 95.23 9.01Q95.05 8.38 95.05 7.68L95.05 7.68Q95.05 6.74 95.37 6.05Q95.70 5.36 96.24 4.90Q96.79 4.44 97.50 4.22Q98.21 4.00 99.01 4.00L99.01 4.00Q99.89 4.00 100.59 4.21Q101.30 4.42 101.80 4.84Q102.30 5.26 102.57 5.89Q102.84 6.52 102.84 7.35L102.84 7.35Q102.84 7.91 102.74 8.44Q102.64 8.96 102.55 9.34L102.55 9.34L100.50 9.34Q100.49 8.54 100.43 7.95Q100.37 7.35 100.21 6.96Q100.05 6.56 99.78 6.36Q99.50 6.16 99.06 6.16L99.06 6.16Q98.67 6.16 98.41 6.29Q98.16 6.41 98.00 6.61Q97.84 6.81 97.78 7.05Q97.71 7.30 97.71 7.56L97.71 7.56Q97.71 8.12 97.98 8.60Q98.25 9.08 98.70 9.64L98.70 9.64L101.06 12.42Q101.32 12.74 101.66 13.19Q102 13.64 102.30 14.19Q102.61 14.73 102.82 15.38Q103.03 16.02 103.03 16.72L103.03 16.72Q103.03 17.58 102.76 18.28Q102.49 18.97 101.96 19.46Q101.44 19.96 100.67 20.23Q99.90 20.50 98.92 20.50L98.92 20.50Q98.11 20.50 97.39 20.31Q96.68 20.13 96.15 19.72Q95.63 19.30 95.32 18.62Q95.02 17.94 95.02 16.95Z" transform="translate(0, 7.747)"></path></svg>